<?xml version="1.0" standalone="no"?><!DOCTYPE svg PUBLIC "-//W3C//DTD SVG 1.1//EN" "http://www.w3.org/Graphics/SVG/1.1/DTD/svg11.dtd"><svg t="1554879882623" class="icon" style="" viewBox="0 0 1024 1024" version="1.1" xmlns="http://www.w3.org/2000/svg" p-id="1367" xmlns:xlink="http://www.w3.org/1999/xlink" width="32" height="32"><defs><style type="text/css"></style></defs><path d="M1008.056 454.562c-72.046 87.755-199.442 232.63-199.442 232.63s20.836 159.064 32.514 267.717c5.077 55.339-34.822 79.272-80.005 57.7-85.98-43.192-216.818-110.113-246.25-125.192-29.952 14.928-162.103 80.744-248.973 123.836-45.705 21.52-86.082-2.408-80.945-57.647 11.833-108.493 32.883-267.403 32.883-267.403S88.979 541.633 16.098 453.99c-25.758-31.83-9.219-77.076 41.57-85.395 103.567-19.581 264.104-50.79 264.104-50.79S409.58 155.963 465.134 56.846c30.576-60.313 51.728-53.35 55.345-51.574 9.423 3.246 24.295 14.975 43.712 51.626 54.923 99.27 141.74 261.326 141.74 261.326s158.649 31.212 261.012 50.842c50.178 8.368 66.564 53.666 41.113 85.496z" p-id="1368" fill="#f4ea2a"></path></svg>